<?xml version="1.0" encoding="utf-8"?>
<!-- Generator: Adobe Illustrator 24.0.3, SVG Export Plug-In . SVG Version: 6.00 Build 0)  -->
<svg version="1.1" id="Layer_1" xmlns="http://www.w3.org/2000/svg" xmlns:xlink="http://www.w3.org/1999/xlink" x="0px" y="0px"
	 viewBox="0 0 200 75" style="enable-background:new 0 0 200 75;" xml:space="preserve">
<style type="text/css">
	.st0{fill:#676767;}
	.st1{fill:#F16823;}
	.st2{fill:url(#SVGID_1_);}
	.st3{opacity:0.64;fill:#FFFFFF;}
	.st4{fill:#FFFFFF;}
	.st5{fill:url(#SVGID_2_);}
</style>
<g>
	<path class="st0" d="M23.89,59.53c0.08-0.01,0.18-0.02,0.3-0.02c0.12-0.01,0.22-0.01,0.31-0.01c0.1,0,0.21,0,0.31,0.01
		c0.1,0,0.2,0.01,0.28,0.02v4.95h6.18v-4.95c0.08-0.01,0.17-0.02,0.28-0.02c0.1-0.01,0.21-0.01,0.31-0.01c0.09,0,0.2,0,0.31,0.01
		c0.12,0,0.22,0.01,0.3,0.02v11.62c-0.07,0.01-0.16,0.02-0.27,0.02c-0.11,0.01-0.22,0.01-0.34,0.01c-0.11,0-0.21,0-0.31-0.01
		c-0.1-0.01-0.2-0.01-0.28-0.02V65.5h-6.18v5.66c-0.08,0.01-0.17,0.02-0.28,0.02c-0.1,0.01-0.21,0.01-0.31,0.01
		c-0.12,0-0.23,0-0.34-0.01c-0.11-0.01-0.2-0.01-0.27-0.02V59.53z"/>
	<path class="st0" d="M34.95,62.91c0.07-0.01,0.17-0.02,0.3-0.02c0.13-0.01,0.22-0.01,0.28-0.01c0.07,0,0.17,0,0.29,0.01
		c0.12,0.01,0.22,0.01,0.29,0.02v4.64c0,0.58,0.06,1.06,0.19,1.43c0.13,0.37,0.32,0.66,0.57,0.87c0.25,0.21,0.56,0.36,0.92,0.44
		c0.36,0.08,0.77,0.12,1.22,0.12c0.38,0,0.73-0.02,1.03-0.06c0.3-0.04,0.57-0.09,0.8-0.15v-7.29c0.07-0.01,0.17-0.02,0.3-0.02
		c0.13-0.01,0.22-0.01,0.28-0.01c0.07,0,0.17,0,0.29,0.01c0.12,0.01,0.22,0.01,0.29,0.02v8.03c-0.43,0.11-0.91,0.2-1.44,0.28
		c-0.53,0.08-1.07,0.12-1.63,0.12c-0.55,0-1.06-0.05-1.55-0.15c-0.48-0.1-0.9-0.28-1.26-0.56c-0.36-0.27-0.64-0.65-0.85-1.14
		c-0.21-0.48-0.31-1.11-0.31-1.89V62.91z"/>
	<path class="st0" d="M44.31,62.91c0.09-0.01,0.18-0.02,0.27-0.02c0.09-0.01,0.17-0.01,0.25-0.01c0.09,0,0.18,0,0.26,0.01
		c0.08,0.01,0.17,0.01,0.26,0.02c0.02,0.19,0.04,0.43,0.05,0.69c0.01,0.27,0.02,0.51,0.02,0.73c0.1-0.2,0.24-0.4,0.4-0.6
		c0.16-0.19,0.36-0.37,0.58-0.52c0.22-0.15,0.47-0.27,0.76-0.36c0.29-0.09,0.61-0.14,0.97-0.14c0.34,0,0.63,0.04,0.87,0.11
		c0.24,0.08,0.46,0.18,0.64,0.31c0.18,0.13,0.33,0.29,0.45,0.48c0.12,0.18,0.24,0.39,0.34,0.61c0.13-0.17,0.27-0.35,0.44-0.53
		c0.16-0.18,0.35-0.35,0.56-0.49c0.21-0.15,0.45-0.26,0.73-0.36c0.27-0.09,0.58-0.14,0.92-0.14c1.04,0,1.78,0.27,2.24,0.82
		c0.46,0.55,0.69,1.34,0.69,2.36v5.25c-0.07,0.01-0.17,0.02-0.29,0.02c-0.12,0.01-0.22,0.01-0.29,0.01c-0.06,0-0.15,0-0.28-0.01
		c-0.13-0.01-0.23-0.01-0.3-0.02v-4.88c0-0.87-0.15-1.52-0.46-1.94c-0.31-0.42-0.77-0.63-1.39-0.63c-0.37,0-0.7,0.07-0.98,0.21
		c-0.28,0.14-0.51,0.33-0.7,0.57c-0.19,0.24-0.33,0.51-0.43,0.83c-0.1,0.32-0.15,0.65-0.15,1.01v4.83
		c-0.07,0.01-0.17,0.02-0.29,0.02c-0.12,0.01-0.22,0.01-0.29,0.01c-0.06,0-0.15,0-0.28-0.01c-0.13-0.01-0.23-0.01-0.3-0.02v-5.09
		c0-0.83-0.14-1.44-0.43-1.84c-0.29-0.4-0.69-0.6-1.23-0.6c-0.36,0-0.69,0.08-1,0.25c-0.3,0.17-0.56,0.4-0.79,0.7
		c-0.22,0.3-0.39,0.66-0.52,1.07c-0.12,0.42-0.18,0.87-0.18,1.37v4.14c-0.07,0.01-0.17,0.02-0.29,0.02
		c-0.12,0.01-0.22,0.01-0.29,0.01c-0.06,0-0.15,0-0.28-0.01c-0.13-0.01-0.23-0.01-0.3-0.02V62.91z"/>
	<path class="st0" d="M63.06,65.71c0-0.71-0.18-1.23-0.54-1.56c-0.36-0.33-0.9-0.49-1.61-0.49c-0.47,0-0.89,0.03-1.28,0.09
		c-0.38,0.06-0.73,0.13-1.03,0.22c-0.06-0.1-0.11-0.24-0.15-0.42c-0.04-0.18-0.06-0.36-0.06-0.52c0.3-0.09,0.68-0.16,1.12-0.22
		c0.44-0.06,0.9-0.09,1.36-0.09c1.13,0,1.97,0.23,2.51,0.69c0.55,0.46,0.82,1.18,0.82,2.16v5.45c-0.41,0.08-0.9,0.15-1.48,0.23
		c-0.58,0.08-1.13,0.11-1.66,0.11c-1.08,0-1.94-0.2-2.56-0.6c-0.62-0.4-0.93-1.04-0.93-1.94c0-0.43,0.09-0.82,0.27-1.16
		c0.18-0.34,0.43-0.62,0.75-0.86c0.32-0.23,0.7-0.41,1.15-0.53c0.45-0.12,0.94-0.18,1.48-0.18c0.42,0,0.78,0.01,1.08,0.04
		c0.3,0.03,0.55,0.05,0.75,0.07V65.71z M63.06,67.15c-0.2-0.02-0.45-0.05-0.74-0.07c-0.3-0.03-0.58-0.04-0.85-0.04
		c-0.87,0-1.55,0.15-2.03,0.45c-0.48,0.3-0.72,0.73-0.72,1.29c0,0.36,0.07,0.64,0.22,0.86c0.15,0.22,0.33,0.38,0.57,0.49
		c0.23,0.11,0.49,0.19,0.77,0.23c0.28,0.04,0.56,0.06,0.84,0.06c0.36,0,0.7-0.02,1.01-0.05c0.31-0.03,0.62-0.07,0.93-0.13V67.15z"/>
	<path class="st0" d="M66.36,62.91c0.09-0.01,0.18-0.02,0.27-0.02c0.09-0.01,0.17-0.01,0.25-0.01c0.09,0,0.18,0,0.26,0.01
		c0.08,0.01,0.17,0.01,0.26,0.02c0.02,0.19,0.04,0.44,0.05,0.73c0.01,0.29,0.02,0.54,0.02,0.76c0.12-0.19,0.27-0.39,0.45-0.59
		c0.19-0.2,0.4-0.38,0.65-0.54c0.25-0.16,0.54-0.29,0.86-0.4c0.33-0.1,0.68-0.15,1.06-0.15c1.02,0,1.77,0.28,2.24,0.85
		c0.47,0.57,0.7,1.36,0.7,2.38v5.2c-0.07,0.01-0.17,0.02-0.29,0.02c-0.12,0.01-0.22,0.01-0.29,0.01c-0.06,0-0.15,0-0.28-0.01
		c-0.13-0.01-0.23-0.01-0.3-0.02v-4.88c0-0.92-0.15-1.57-0.46-1.97c-0.31-0.4-0.77-0.6-1.39-0.6c-0.41,0-0.79,0.08-1.15,0.23
		c-0.36,0.15-0.67,0.37-0.93,0.65c-0.26,0.29-0.47,0.64-0.62,1.06c-0.15,0.42-0.23,0.9-0.23,1.44v4.07
		c-0.07,0.01-0.17,0.02-0.29,0.02c-0.12,0.01-0.22,0.01-0.29,0.01c-0.06,0-0.15,0-0.28-0.01c-0.13-0.01-0.23-0.01-0.3-0.02V62.91z"
		/>
	<path class="st0" d="M79.94,67.19c0,1.1,0.27,1.91,0.82,2.42c0.55,0.52,1.37,0.78,2.46,0.78c0.44,0,0.85-0.03,1.23-0.11
		c0.38-0.07,0.75-0.16,1.11-0.28c0.06,0.12,0.1,0.26,0.14,0.44c0.03,0.17,0.06,0.33,0.07,0.47c-0.34,0.14-0.73,0.25-1.19,0.32
		c-0.45,0.08-0.95,0.11-1.48,0.11c-0.77,0-1.43-0.11-1.98-0.32c-0.55-0.21-1.01-0.5-1.36-0.88c-0.35-0.38-0.62-0.83-0.79-1.35
		c-0.17-0.52-0.25-1.1-0.25-1.72c0-0.6,0.08-1.17,0.24-1.7c0.16-0.53,0.4-0.99,0.72-1.39c0.32-0.4,0.73-0.71,1.23-0.94
		c0.5-0.23,1.1-0.34,1.8-0.34c0.58,0,1.1,0.09,1.55,0.27c0.45,0.18,0.84,0.44,1.14,0.77c0.31,0.33,0.54,0.72,0.7,1.18
		c0.16,0.46,0.24,0.96,0.24,1.5c0,0.1,0,0.22-0.01,0.37c-0.01,0.15-0.01,0.28-0.03,0.39H79.94z M85.18,66.31
		c0-0.33-0.05-0.66-0.14-0.99c-0.09-0.32-0.24-0.61-0.44-0.85c-0.2-0.24-0.45-0.44-0.77-0.59c-0.31-0.15-0.69-0.23-1.13-0.23
		c-0.82,0-1.45,0.23-1.9,0.69c-0.45,0.46-0.73,1.11-0.82,1.96H85.18z"/>
	<path class="st0" d="M88.11,62.91c0.09-0.01,0.18-0.02,0.27-0.02c0.09-0.01,0.17-0.01,0.25-0.01c0.09,0,0.18,0,0.26,0.01
		c0.08,0.01,0.17,0.01,0.26,0.02c0.02,0.19,0.04,0.42,0.05,0.69c0.01,0.26,0.02,0.5,0.02,0.72c0.23-0.4,0.56-0.74,0.98-1.01
		c0.42-0.27,0.97-0.41,1.66-0.41c0.06,0,0.12,0,0.18,0c0.06,0,0.14,0.01,0.22,0.02c0.03,0.18,0.05,0.36,0.05,0.52
		c0,0.17-0.02,0.34-0.05,0.5c-0.09-0.01-0.17-0.02-0.22-0.02c-0.05,0-0.11,0-0.17,0c-0.79,0-1.43,0.23-1.9,0.7
		c-0.48,0.46-0.72,1.23-0.72,2.31v4.23c-0.07,0.01-0.17,0.02-0.29,0.02c-0.12,0.01-0.22,0.01-0.29,0.01c-0.06,0-0.15,0-0.28-0.01
		c-0.13-0.01-0.23-0.01-0.3-0.02V62.91z"/>
	<path class="st0" d="M93.47,62.91c0.09-0.01,0.18-0.02,0.27-0.02c0.09-0.01,0.17-0.01,0.25-0.01c0.09,0,0.18,0,0.26,0.01
		c0.08,0.01,0.17,0.01,0.26,0.02c0.02,0.19,0.04,0.42,0.05,0.69c0.01,0.26,0.02,0.5,0.02,0.72c0.23-0.4,0.56-0.74,0.98-1.01
		c0.42-0.27,0.97-0.41,1.66-0.41c0.06,0,0.12,0,0.18,0c0.06,0,0.14,0.01,0.22,0.02c0.04,0.18,0.05,0.36,0.05,0.52
		c0,0.17-0.02,0.34-0.05,0.5c-0.09-0.01-0.17-0.02-0.22-0.02c-0.05,0-0.11,0-0.17,0c-0.79,0-1.43,0.23-1.9,0.7
		c-0.48,0.46-0.72,1.23-0.72,2.31v4.23c-0.07,0.01-0.17,0.02-0.29,0.02c-0.12,0.01-0.22,0.01-0.29,0.01c-0.06,0-0.15,0-0.28-0.01
		c-0.13-0.01-0.23-0.01-0.3-0.02V62.91z"/>
	<path class="st0" d="M102.3,71.35c-0.66,0-1.25-0.11-1.75-0.33c-0.5-0.22-0.92-0.52-1.25-0.91c-0.33-0.39-0.58-0.85-0.74-1.37
		c-0.16-0.53-0.24-1.09-0.24-1.7c0-0.6,0.08-1.17,0.24-1.7c0.16-0.53,0.41-0.99,0.74-1.37c0.33-0.39,0.75-0.69,1.25-0.91
		c0.5-0.22,1.08-0.33,1.75-0.33c0.66,0,1.24,0.11,1.74,0.33c0.49,0.22,0.91,0.52,1.24,0.91c0.33,0.39,0.58,0.85,0.75,1.37
		c0.17,0.53,0.25,1.09,0.25,1.7c0,0.6-0.08,1.17-0.25,1.7c-0.17,0.53-0.42,0.99-0.75,1.37c-0.33,0.39-0.75,0.69-1.24,0.91
		C103.54,71.24,102.96,71.35,102.3,71.35z M102.3,70.41c0.93,0,1.63-0.3,2.09-0.91c0.46-0.6,0.69-1.43,0.69-2.47
		c0-1.05-0.23-1.87-0.69-2.47c-0.46-0.6-1.16-0.91-2.09-0.91c-0.93,0-1.63,0.3-2.09,0.91c-0.46,0.6-0.69,1.43-0.69,2.47
		c0,1.04,0.23,1.87,0.69,2.47C100.67,70.11,101.37,70.41,102.3,70.41z"/>
	<path class="st0" d="M108.09,62.91c0.09-0.01,0.18-0.02,0.27-0.02s0.17-0.01,0.25-0.01c0.09,0,0.18,0,0.26,0.01
		c0.08,0.01,0.17,0.01,0.26,0.02c0.02,0.19,0.04,0.42,0.05,0.69c0.01,0.26,0.02,0.5,0.02,0.72c0.23-0.4,0.56-0.74,0.98-1.01
		c0.42-0.27,0.97-0.41,1.66-0.41c0.06,0,0.12,0,0.18,0c0.06,0,0.14,0.01,0.22,0.02c0.03,0.18,0.05,0.36,0.05,0.52
		c0,0.17-0.02,0.34-0.05,0.5c-0.09-0.01-0.17-0.02-0.22-0.02c-0.05,0-0.11,0-0.17,0c-0.79,0-1.43,0.23-1.9,0.7
		c-0.48,0.46-0.72,1.23-0.72,2.31v4.23c-0.07,0.01-0.17,0.02-0.29,0.02c-0.12,0.01-0.22,0.01-0.29,0.01c-0.06,0-0.15,0-0.28-0.01
		c-0.13-0.01-0.23-0.01-0.3-0.02V62.91z"/>
	<path class="st0" d="M112.96,71.15c-0.04-0.23-0.05-0.45-0.05-0.68c0-0.24,0.02-0.47,0.05-0.7c0.24-0.03,0.49-0.05,0.73-0.05
		c0.26,0,0.51,0.02,0.75,0.05c0.04,0.23,0.05,0.45,0.05,0.68c0,0.24-0.02,0.47-0.05,0.69c-0.24,0.03-0.49,0.05-0.73,0.05
		C113.46,71.2,113.21,71.19,112.96,71.15z"/>
	<path class="st0" d="M127.94,69.83c0.09,0.16,0.17,0.32,0.24,0.47c0.07,0.15,0.12,0.31,0.16,0.47c-0.4,0.18-0.87,0.33-1.41,0.43
		c-0.55,0.1-1.12,0.15-1.73,0.15c-0.85,0-1.63-0.13-2.33-0.39c-0.7-0.26-1.31-0.64-1.81-1.13c-0.5-0.5-0.89-1.11-1.17-1.84
		c-0.28-0.73-0.42-1.57-0.42-2.52c0-0.97,0.14-1.83,0.41-2.59c0.27-0.76,0.66-1.4,1.15-1.92c0.5-0.52,1.09-0.92,1.8-1.2
		c0.7-0.28,1.49-0.41,2.37-0.41c0.73,0,1.35,0.05,1.83,0.15c0.49,0.1,0.84,0.18,1.06,0.24c-0.02,0.19-0.06,0.36-0.1,0.49
		c-0.04,0.13-0.1,0.29-0.18,0.47c-0.15-0.04-0.31-0.09-0.46-0.13c-0.16-0.04-0.34-0.08-0.53-0.11c-0.2-0.03-0.43-0.06-0.69-0.08
		c-0.26-0.02-0.57-0.03-0.92-0.03c-0.69,0-1.3,0.12-1.85,0.35c-0.55,0.23-1.01,0.57-1.4,1.01c-0.38,0.44-0.68,0.98-0.89,1.62
		c-0.21,0.64-0.31,1.36-0.31,2.17c0,0.83,0.12,1.55,0.35,2.17c0.23,0.61,0.56,1.12,0.97,1.53c0.41,0.4,0.9,0.7,1.45,0.9
		c0.55,0.19,1.15,0.29,1.79,0.29c0.55,0,1.04-0.05,1.49-0.15C127.26,70.1,127.64,69.98,127.94,69.83z"/>
	<path class="st0" d="M132.57,71.35c-0.66,0-1.25-0.11-1.75-0.33c-0.5-0.22-0.92-0.52-1.25-0.91c-0.33-0.39-0.58-0.85-0.74-1.37
		c-0.16-0.53-0.24-1.09-0.24-1.7c0-0.6,0.08-1.17,0.24-1.7c0.16-0.53,0.41-0.99,0.74-1.37c0.33-0.39,0.75-0.69,1.25-0.91
		c0.5-0.22,1.08-0.33,1.75-0.33c0.66,0,1.24,0.11,1.74,0.33c0.5,0.22,0.91,0.52,1.24,0.91c0.33,0.39,0.58,0.85,0.75,1.37
		c0.17,0.53,0.25,1.09,0.25,1.7c0,0.6-0.08,1.17-0.25,1.7c-0.17,0.53-0.42,0.99-0.75,1.37c-0.33,0.39-0.74,0.69-1.24,0.91
		C133.81,71.24,133.23,71.35,132.57,71.35z M132.57,70.41c0.93,0,1.63-0.3,2.09-0.91c0.46-0.6,0.69-1.43,0.69-2.47
		c0-1.05-0.23-1.87-0.69-2.47c-0.46-0.6-1.16-0.91-2.09-0.91c-0.93,0-1.63,0.3-2.09,0.91c-0.46,0.6-0.69,1.43-0.69,2.47
		c0,1.04,0.23,1.87,0.69,2.47C130.94,70.11,131.64,70.41,132.57,70.41z"/>
	<path class="st0" d="M138.36,62.91c0.09-0.01,0.18-0.02,0.27-0.02c0.09-0.01,0.17-0.01,0.25-0.01c0.09,0,0.18,0,0.26,0.01
		c0.08,0.01,0.17,0.01,0.26,0.02c0.02,0.19,0.04,0.44,0.05,0.73c0.01,0.29,0.02,0.54,0.02,0.76c0.12-0.19,0.27-0.39,0.45-0.59
		c0.19-0.2,0.4-0.38,0.66-0.54c0.25-0.16,0.54-0.29,0.86-0.4c0.33-0.1,0.68-0.15,1.07-0.15c1.02,0,1.77,0.28,2.23,0.85
		c0.47,0.57,0.7,1.36,0.7,2.38v5.2c-0.07,0.01-0.17,0.02-0.29,0.02c-0.12,0.01-0.22,0.01-0.29,0.01c-0.06,0-0.15,0-0.28-0.01
		c-0.13-0.01-0.23-0.01-0.3-0.02v-4.88c0-0.92-0.15-1.57-0.46-1.97c-0.31-0.4-0.77-0.6-1.39-0.6c-0.41,0-0.79,0.08-1.15,0.23
		c-0.36,0.15-0.67,0.37-0.93,0.65c-0.26,0.29-0.47,0.64-0.62,1.06c-0.15,0.42-0.23,0.9-0.23,1.44v4.07
		c-0.07,0.01-0.17,0.02-0.29,0.02c-0.12,0.01-0.22,0.01-0.29,0.01c-0.06,0-0.15,0-0.28-0.01c-0.13-0.01-0.23-0.01-0.3-0.02V62.91z"
		/>
	<path class="st0" d="M153.57,71.11c-0.28,0.07-0.58,0.13-0.91,0.18c-0.33,0.04-0.67,0.06-1.05,0.06c-0.62,0-1.2-0.07-1.75-0.19
		c-0.55-0.13-1.02-0.35-1.43-0.67c-0.41-0.32-0.73-0.74-0.96-1.26c-0.23-0.52-0.35-1.17-0.35-1.95c0-0.71,0.11-1.35,0.34-1.91
		c0.23-0.56,0.54-1.04,0.95-1.43c0.41-0.39,0.9-0.69,1.48-0.91c0.58-0.21,1.21-0.32,1.91-0.32c0.33,0,0.62,0.01,0.88,0.02
		c0.26,0.02,0.51,0.04,0.73,0.07c0.23,0.03,0.45,0.07,0.65,0.11c0.21,0.04,0.42,0.1,0.65,0.16v11.88c-0.07,0.01-0.17,0.02-0.3,0.02
		c-0.13,0-0.22,0.01-0.28,0.01c-0.07,0-0.17,0-0.29-0.01c-0.12-0.01-0.22-0.01-0.29-0.02V71.11z M153.57,63.82
		c-0.35-0.06-0.64-0.11-0.86-0.13c-0.23-0.02-0.5-0.03-0.83-0.03c-0.59,0-1.11,0.09-1.56,0.27c-0.45,0.18-0.82,0.44-1.11,0.78
		c-0.29,0.33-0.51,0.73-0.65,1.18c-0.15,0.45-0.22,0.95-0.22,1.5c0,0.53,0.08,0.98,0.24,1.36c0.16,0.38,0.38,0.69,0.67,0.94
		c0.29,0.25,0.63,0.43,1.02,0.55c0.39,0.12,0.82,0.18,1.3,0.18c0.38,0,0.76-0.03,1.12-0.08c0.36-0.05,0.66-0.12,0.89-0.19V63.82z"/>
	<path class="st0" d="M156.97,62.91c0.07-0.01,0.17-0.02,0.3-0.02c0.13-0.01,0.22-0.01,0.28-0.01c0.07,0,0.17,0,0.29,0.01
		s0.22,0.01,0.29,0.02v4.64c0,0.58,0.06,1.06,0.19,1.43c0.13,0.37,0.32,0.66,0.57,0.87c0.25,0.21,0.56,0.36,0.92,0.44
		c0.36,0.08,0.77,0.12,1.22,0.12c0.38,0,0.73-0.02,1.03-0.06c0.3-0.04,0.57-0.09,0.8-0.15v-7.29c0.07-0.01,0.17-0.02,0.3-0.02
		c0.13-0.01,0.22-0.01,0.28-0.01c0.07,0,0.17,0,0.29,0.01s0.22,0.01,0.29,0.02v8.03c-0.43,0.11-0.91,0.2-1.44,0.28
		c-0.53,0.08-1.07,0.12-1.63,0.12c-0.55,0-1.06-0.05-1.54-0.15c-0.48-0.1-0.9-0.28-1.26-0.56c-0.36-0.27-0.64-0.65-0.85-1.14
		c-0.21-0.48-0.31-1.11-0.31-1.89V62.91z"/>
	<path class="st0" d="M167.06,67.19c0,1.1,0.27,1.91,0.82,2.42c0.55,0.52,1.37,0.78,2.46,0.78c0.44,0,0.85-0.03,1.23-0.11
		c0.38-0.07,0.75-0.16,1.11-0.28c0.06,0.12,0.1,0.26,0.14,0.44c0.03,0.17,0.06,0.33,0.07,0.47c-0.34,0.14-0.73,0.25-1.19,0.32
		c-0.45,0.08-0.95,0.11-1.48,0.11c-0.77,0-1.43-0.11-1.98-0.32c-0.55-0.21-1.01-0.5-1.36-0.88c-0.36-0.38-0.62-0.83-0.79-1.35
		c-0.17-0.52-0.25-1.1-0.25-1.72c0-0.6,0.08-1.17,0.24-1.7c0.16-0.53,0.4-0.99,0.72-1.39c0.32-0.4,0.73-0.71,1.23-0.94
		c0.5-0.23,1.1-0.34,1.8-0.34c0.58,0,1.1,0.09,1.55,0.27c0.45,0.18,0.84,0.44,1.14,0.77c0.31,0.33,0.54,0.72,0.7,1.18
		c0.16,0.46,0.24,0.96,0.24,1.5c0,0.1,0,0.22-0.01,0.37c-0.01,0.15-0.01,0.28-0.03,0.39H167.06z M172.3,66.31
		c0-0.33-0.05-0.66-0.14-0.99c-0.09-0.32-0.24-0.61-0.44-0.85c-0.2-0.24-0.45-0.44-0.77-0.59c-0.31-0.15-0.69-0.23-1.14-0.23
		c-0.81,0-1.45,0.23-1.9,0.69c-0.45,0.46-0.73,1.11-0.82,1.96H172.3z"/>
	<path class="st0" d="M175.23,62.91c0.09-0.01,0.18-0.02,0.27-0.02c0.09-0.01,0.17-0.01,0.25-0.01c0.09,0,0.18,0,0.26,0.01
		c0.08,0.01,0.17,0.01,0.26,0.02c0.02,0.19,0.04,0.42,0.05,0.69c0.01,0.26,0.02,0.5,0.02,0.72c0.23-0.4,0.56-0.74,0.98-1.01
		c0.42-0.27,0.97-0.41,1.66-0.41c0.06,0,0.12,0,0.18,0c0.06,0,0.14,0.01,0.22,0.02c0.04,0.18,0.05,0.36,0.05,0.52
		c0,0.17-0.02,0.34-0.05,0.5c-0.09-0.01-0.17-0.02-0.22-0.02c-0.05,0-0.11,0-0.17,0c-0.79,0-1.43,0.23-1.9,0.7
		c-0.48,0.46-0.72,1.23-0.72,2.31v4.23c-0.07,0.01-0.17,0.02-0.29,0.02c-0.12,0.01-0.22,0.01-0.29,0.01c-0.06,0-0.15,0-0.28-0.01
		c-0.13-0.01-0.23-0.01-0.3-0.02V62.91z"/>
	<path class="st0" d="M181.32,67.19c0,1.1,0.27,1.91,0.82,2.42c0.55,0.52,1.37,0.78,2.46,0.78c0.44,0,0.85-0.03,1.23-0.11
		c0.38-0.07,0.75-0.16,1.11-0.28c0.06,0.12,0.1,0.26,0.14,0.44c0.04,0.17,0.06,0.33,0.07,0.47c-0.34,0.14-0.73,0.25-1.19,0.32
		c-0.45,0.08-0.95,0.11-1.48,0.11c-0.77,0-1.43-0.11-1.98-0.32c-0.55-0.21-1.01-0.5-1.36-0.88c-0.35-0.38-0.62-0.83-0.79-1.35
		c-0.17-0.52-0.25-1.1-0.25-1.72c0-0.6,0.08-1.17,0.24-1.7c0.16-0.53,0.4-0.99,0.72-1.39c0.32-0.4,0.73-0.71,1.23-0.94
		c0.5-0.23,1.1-0.34,1.8-0.34c0.58,0,1.1,0.09,1.55,0.27c0.45,0.18,0.83,0.44,1.14,0.77c0.31,0.33,0.54,0.72,0.7,1.18
		c0.16,0.46,0.24,0.96,0.24,1.5c0,0.1,0,0.22-0.01,0.37c-0.01,0.15-0.01,0.28-0.03,0.39H181.32z M186.56,66.31
		c0-0.33-0.05-0.66-0.14-0.99c-0.09-0.32-0.24-0.61-0.44-0.85c-0.2-0.24-0.45-0.44-0.77-0.59c-0.31-0.15-0.69-0.23-1.14-0.23
		c-0.81,0-1.45,0.23-1.9,0.69c-0.45,0.46-0.73,1.11-0.82,1.96H186.56z"/>
	<path class="st0" d="M195.48,59.27c0.07-0.01,0.17-0.02,0.3-0.02c0.13-0.01,0.22-0.01,0.28-0.01c0.07,0,0.17,0,0.29,0.01
		c0.12,0.01,0.22,0.01,0.29,0.02v11.68c-0.36,0.11-0.81,0.2-1.35,0.28c-0.54,0.08-1.09,0.11-1.68,0.11c-0.64,0-1.24-0.07-1.8-0.21
		c-0.56-0.14-1.04-0.37-1.45-0.7c-0.41-0.32-0.73-0.75-0.97-1.28c-0.24-0.53-0.36-1.18-0.36-1.96c0-0.71,0.11-1.34,0.31-1.9
		c0.21-0.55,0.51-1.02,0.89-1.41c0.38-0.38,0.85-0.68,1.39-0.88c0.54-0.2,1.14-0.31,1.79-0.31c0.38,0,0.76,0.03,1.14,0.09
		c0.38,0.06,0.68,0.13,0.92,0.2V59.27z M195.48,64.01c-0.23-0.09-0.53-0.16-0.89-0.23c-0.36-0.07-0.73-0.1-1.12-0.1
		c-0.55,0-1.02,0.09-1.42,0.26c-0.4,0.17-0.74,0.41-1,0.72c-0.27,0.31-0.47,0.68-0.6,1.11c-0.13,0.43-0.2,0.9-0.2,1.42
		c0,1.12,0.29,1.94,0.86,2.45c0.58,0.51,1.39,0.77,2.45,0.77c0.38,0,0.75-0.02,1.1-0.06c0.35-0.04,0.62-0.08,0.82-0.14V64.01z"/>
	<path class="st0" d="M198.46,71.15c-0.04-0.23-0.05-0.45-0.05-0.68c0-0.24,0.02-0.47,0.05-0.7c0.24-0.03,0.49-0.05,0.73-0.05
		c0.26,0,0.51,0.02,0.75,0.05c0.04,0.23,0.05,0.45,0.05,0.68c0,0.24-0.02,0.47-0.05,0.69c-0.24,0.03-0.49,0.05-0.73,0.05
		C198.96,71.2,198.71,71.19,198.46,71.15z"/>
</g>
<path class="st1" d="M0.09,20.45C0.34,20.42,0.64,20.4,1,20.38c0.35-0.02,0.67-0.02,0.95-0.02c0.32,0,0.64,0.01,0.96,0.02
	c0.32,0.02,0.6,0.04,0.85,0.07v35.3c-0.25,0.03-0.53,0.06-0.85,0.08c-0.32,0.01-0.64,0.02-0.96,0.02c-0.35,0-0.7-0.01-1.03-0.02
	c-0.33-0.02-0.61-0.05-0.82-0.08V20.45z"/>
<path class="st1" d="M28.28,30.72c0.28-0.03,0.56-0.06,0.82-0.08c0.26-0.02,0.52-0.02,0.77-0.02c0.28,0,0.55,0.01,0.79,0.02
	c0.25,0.01,0.51,0.04,0.8,0.08c0.07,0.59,0.12,1.32,0.16,2.2c0.03,0.88,0.05,1.65,0.05,2.31c0.35-0.59,0.81-1.18,1.38-1.79
	c0.57-0.61,1.23-1.16,1.99-1.65c0.76-0.49,1.64-0.89,2.62-1.2c0.99-0.31,2.07-0.47,3.24-0.47c3.11,0,5.37,0.86,6.79,2.58
	c1.41,1.72,2.12,4.13,2.12,7.24v15.81c-0.21,0.03-0.5,0.06-0.88,0.08c-0.37,0.01-0.66,0.02-0.87,0.02c-0.17,0-0.46-0.01-0.85-0.02
	c-0.39-0.02-0.69-0.05-0.9-0.08V40.93c0-2.78-0.47-4.78-1.4-5.99c-0.94-1.21-2.34-1.81-4.22-1.81c-1.24,0-2.4,0.23-3.5,0.68
	c-1.1,0.46-2.04,1.12-2.84,1.99c-0.79,0.86-1.42,1.94-1.88,3.22c-0.46,1.28-0.69,2.73-0.69,4.37v12.37
	c-0.21,0.03-0.5,0.06-0.87,0.08c-0.37,0.01-0.67,0.02-0.88,0.02c-0.18,0-0.46-0.01-0.85-0.02c-0.39-0.02-0.69-0.05-0.9-0.08V30.72z"
	/>
<path class="st1" d="M80.89,30.72c0.21-0.03,0.48-0.06,0.82-0.08c0.33-0.02,0.68-0.02,1.03-0.02c0.28,0,0.63,0.01,1.04,0.02
	c0.41,0.01,0.71,0.04,0.93,0.08l5.99,21.31l6.68-21.31c0.28-0.03,0.59-0.06,0.93-0.08c0.34-0.02,0.7-0.02,1.09-0.02
	c0.28,0,0.57,0,0.87,0c0.3,0,0.6,0.03,0.88,0.1l6.68,21.01l5.99-21.01c0.21-0.03,0.47-0.06,0.77-0.08c0.3-0.02,0.59-0.02,0.88-0.02
	c0.28,0,0.6,0.01,0.95,0.02c0.35,0.01,0.64,0.04,0.85,0.08l-7.8,25.04c-0.64,0.09-1.26,0.15-1.85,0.15c-0.68,0-1.29-0.05-1.86-0.15
	l-6.52-20.72L92.4,55.75c-0.64,0.09-1.26,0.15-1.86,0.15c-0.67,0-1.29-0.05-1.85-0.15L80.89,30.72z"/>
<path class="st1" d="M121.81,20.45c0.35-0.03,0.85-0.08,1.51-0.15c0.65-0.06,1.35-0.13,2.09-0.2c0.74-0.07,1.49-0.12,2.26-0.15
	c0.75-0.03,1.43-0.05,2.04-0.05c4.17,0,7.37,0.74,9.6,2.24c2.22,1.48,3.34,3.8,3.34,6.94c0,1.02-0.16,1.95-0.5,2.77
	c-0.34,0.84-0.79,1.59-1.35,2.26c-0.56,0.68-1.23,1.25-1.99,1.69c-0.76,0.46-1.55,0.81-2.36,1.04c1.1,0.13,2.16,0.4,3.19,0.81
	c1.02,0.41,1.93,0.98,2.73,1.72c0.79,0.73,1.43,1.65,1.9,2.75c0.47,1.1,0.72,2.41,0.72,3.95c0,1.77-0.38,3.29-1.14,4.57
	c-0.76,1.28-1.82,2.34-3.18,3.19c-1.36,0.85-2.97,1.48-4.83,1.89c-1.86,0.41-3.88,0.61-6.07,0.61c-0.56,0-1.2-0.01-1.91-0.05
	c-0.71-0.03-1.42-0.07-2.15-0.12c-0.72-0.05-1.43-0.11-2.12-0.2c-0.69-0.08-1.28-0.16-1.77-0.22V20.45z M130.51,35.48
	c2.86,0,4.96-0.59,6.28-1.77c1.33-1.17,1.99-2.71,1.99-4.62c0-1.77-0.7-3.25-2.09-4.44c-1.4-1.19-3.6-1.79-6.6-1.79
	c-0.92,0-1.79,0.04-2.63,0.1c-0.83,0.06-1.49,0.13-1.99,0.2v12.32H130.51z M125.47,53.01c0.49,0.07,1.16,0.13,1.99,0.17
	c0.83,0.05,1.7,0.07,2.63,0.07c1.38,0,2.73-0.12,4.06-0.34c1.33-0.23,2.5-0.62,3.53-1.18c1.02-0.55,1.84-1.29,2.46-2.21
	c0.62-0.91,0.93-2.06,0.93-3.44c0-1.37-0.27-2.53-0.8-3.46c-0.53-0.93-1.25-1.7-2.18-2.29c-0.92-0.59-2-1.01-3.23-1.28
	c-1.24-0.26-2.57-0.39-3.98-0.39h-5.41V53.01z"/>
<path class="st1" d="M152.65,43.73c0,3.33,0.84,5.79,2.5,7.36c1.65,1.57,4.15,2.35,7.47,2.35c1.34,0,2.59-0.11,3.74-0.32
	c1.15-0.22,2.28-0.5,3.36-0.86c0.18,0.36,0.32,0.8,0.43,1.32c0.11,0.53,0.17,1,0.21,1.42c-1.03,0.43-2.23,0.75-3.61,0.98
	c-1.38,0.23-2.87,0.34-4.51,0.34c-2.33,0-4.34-0.31-6.01-0.96c-1.68-0.64-3.06-1.53-4.13-2.67c-1.09-1.15-1.88-2.52-2.39-4.1
	c-0.51-1.59-0.76-3.33-0.76-5.23c0-1.84,0.24-3.55,0.72-5.15c0.47-1.61,1.19-3.02,2.17-4.22c0.97-1.22,2.21-2.17,3.74-2.85
	c1.52-0.69,3.33-1.03,5.46-1.03c1.76,0,3.33,0.28,4.71,0.84c1.38,0.55,2.54,1.33,3.48,2.33c0.93,1,1.63,2.19,2.12,3.58
	c0.48,1.4,0.71,2.91,0.71,4.54c0,0.3-0.01,0.67-0.03,1.13c-0.02,0.46-0.04,0.85-0.07,1.18H152.65z M168.57,41.02
	c0-1.01-0.15-2.01-0.43-2.99c-0.28-0.98-0.72-1.84-1.33-2.58c-0.6-0.74-1.37-1.34-2.34-1.79c-0.95-0.46-2.1-0.69-3.44-0.69
	c-2.48,0-4.41,0.7-5.78,2.11c-1.39,1.4-2.21,3.39-2.5,5.93H168.57z"/>
<path class="st1" d="M6.24,37.69l13.42-17.23c0.28-0.03,0.57-0.05,0.87-0.07c0.3-0.02,0.59-0.02,0.87-0.02
	c0.39,0,0.76,0.01,1.11,0.02c0.36,0.02,0.72,0.04,1.11,0.07L10.59,37.34l15.06,18.41c-0.39,0.03-0.79,0.06-1.19,0.08
	c-0.41,0.01-0.8,0.02-1.19,0.02c-0.32,0-0.65-0.01-0.98-0.02c-0.34-0.02-0.66-0.05-0.98-0.08L6.24,37.69z"/>
<radialGradient id="SVGID_1_" cx="66.8423" cy="47.512" r="11.5691" gradientTransform="matrix(1 0 0 1 0.0449 0.0454)" gradientUnits="userSpaceOnUse">
	<stop  offset="0.1476" style="stop-color:#FFFFFF"/>
	<stop  offset="0.3347" style="stop-color:#FAFAFA"/>
	<stop  offset="0.5518" style="stop-color:#ECECED"/>
	<stop  offset="0.7829" style="stop-color:#D5D6D7"/>
	<stop  offset="0.981" style="stop-color:#BBBCBE"/>
</radialGradient>
<path class="st2" d="M80.38,42.89c0-7.36-5.97-13.33-13.33-13.33c-7.36,0-13.33,5.97-13.33,13.33c0,7.36,5.97,13.33,13.33,13.33
	C74.41,56.22,80.38,50.25,80.38,42.89z"/>
<path class="st3" d="M57.06,38.72c0,4.33,4.51,7.84,10.07,7.84c5.56,0,10.08-3.51,10.08-7.84c0-4.32-4.51-7.83-10.08-7.83
	C61.57,30.89,57.06,34.4,57.06,38.72z"/>
<path class="st4" d="M74.71,36.26c-1.78-1.99-4.23-3.17-6.89-3.33c-2.67-0.15-5.24,0.74-7.23,2.52c-1.77,1.58-2.91,3.69-3.24,6.02
	l-1.81-0.06l2.62,4.62l3.28-4.41l-2.03-0.07c0.31-1.76,1.18-3.36,2.54-4.56c1.59-1.41,3.63-2.13,5.75-2
	c2.12,0.13,4.07,1.06,5.48,2.65c1.42,1.59,2.13,3.63,2,5.76c-0.12,2.12-1.07,4.07-2.65,5.48l1.36,1.52c2-1.77,3.18-4.22,3.34-6.89
	C77.39,40.84,76.49,38.27,74.71,36.26z"/>
<radialGradient id="SVGID_2_" cx="66.3446" cy="41.3852" r="9.8548" gradientTransform="matrix(1 0 0 1 0.0449 0.0454)" gradientUnits="userSpaceOnUse">
	<stop  offset="0" style="stop-color:#FFFFFF"/>
	<stop  offset="1" style="stop-color:#000000"/>
</radialGradient>
<path class="st5" d="M74.71,36.04c-1.78-1.99-4.23-3.18-6.89-3.33c-2.67-0.15-5.24,0.74-7.23,2.52c-1.77,1.58-2.91,3.69-3.24,6.01
	l-1.81-0.06l2.62,4.63l3.28-4.42l-2.03-0.07c0.31-1.76,1.18-3.36,2.54-4.57c1.59-1.41,3.63-2.12,5.75-2
	c2.12,0.12,4.07,1.07,5.48,2.66c1.42,1.59,2.13,3.63,2,5.75c-0.12,2.12-1.07,4.07-2.65,5.48l1.36,1.53c2-1.78,3.18-4.22,3.34-6.89
	C77.39,40.61,76.49,38.04,74.71,36.04z"/>
<path class="st1" d="M173.39,48.05l-0.38-0.49l15.9-27.08c0.66-0.22,1.17-0.31,1.73-0.31c1.1,0.01,1.35,0.14,1.84,0.28l-14.42,24.73
	h12.55V34.5c0.63-0.1,1.24-0.14,1.8-0.14c0.57,0,1.15,0.05,1.75,0.14v10.69h5.67c0.1,0.56,0.16,0.85,0.16,1.34
	c0,0.52-0.06,1.03-0.16,1.52h-5.67v7.84c-0.31,0.07-0.63,0.1-0.93,0.1c-0.3,0-0.59,0-0.88,0c-0.27,0-0.57,0-0.87,0
	c-0.3,0-0.6-0.03-0.88-0.1v-7.84H173.39z"/>
</svg>
